<svg width="40" height="40" viewBox="0 0 40 40" fill="none" xmlns="http://www.w3.org/2000/svg">
<path d="M22.6032 21.5931C22.9542 21.0765 23.1404 20.4656 23.1372 19.8411C23.1372 19.2208 22.9532 18.6145 22.6087 18.0988C22.2641 17.5831 21.7743 17.1811 21.2013 16.9438C20.6282 16.7064 19.9977 16.6443 19.3894 16.7653C18.781 16.8863 18.2223 17.185 17.7837 17.6236C17.3451 18.0622 17.0464 18.621 16.9254 19.2293C16.8044 19.8376 16.8665 20.4681 17.1039 21.0412C17.3412 21.6142 17.7432 22.104 18.2589 22.4486C18.7746 22.7932 19.3809 22.9771 20.0012 22.9771" stroke="#0C3BB6" stroke-width="1.5" stroke-linecap="round" stroke-linejoin="round"/>
<path d="M15.1301 14.2187C16.5436 13.1817 18.247 12.6147 20.0001 12.5977C23.0921 12.5977 25.9741 14.4197 27.9801 17.5737C28.3678 18.2685 28.5713 19.051 28.5713 19.8467C28.5713 20.6423 28.3678 21.4248 27.9801 22.1197C25.9741 25.2737 23.0921 27.0957 20.0001 27.0957C16.9081 27.0957 14.0261 25.2737 12.0201 22.1197C11.6324 21.4248 11.4289 20.6423 11.4289 19.8467C11.4289 19.051 11.6324 18.2685 12.0201 17.5737" stroke="#0C3BB6" stroke-width="1.5" stroke-linecap="round" stroke-linejoin="round"/>
<path d="M12.9285 12.2217L28.4848 27.778" stroke="black" stroke-width="1.5" stroke-linecap="round"/>
</svg>
