<svg width="24" height="24" viewBox="0 0 24 24" fill="none" xmlns="http://www.w3.org/2000/svg">
<path d="M9.65918 16.0676C9.65918 16.5265 9.79527 16.9752 10.0503 17.3568C10.3052 17.7384 10.6676 18.0358 11.0917 18.2114C11.5157 18.3871 11.9823 18.433 12.4324 18.3435C12.8825 18.2539 13.296 18.0329 13.6205 17.7084C13.945 17.3839 14.166 16.9704 14.2556 16.5203C14.3451 16.0701 14.2992 15.6036 14.1235 15.1796C13.9479 14.7555 13.6505 14.3931 13.2689 14.1381C12.8873 13.8832 12.4386 13.7471 11.9797 13.7471" stroke="black" stroke-width="1.5" stroke-linecap="round" stroke-linejoin="round"/>
<path d="M21.9605 17.3223V15.4664C21.9605 11.7533 20.9627 10.8242 16.9702 10.8242H6.99078C2.99831 10.8242 2.00049 11.7557 2.00049 15.4664V17.3235C2.00049 21.0365 2.99831 21.9656 6.99078 21.9656H16.9702C18.2457 22.0888 19.5298 21.8465 20.6727 21.267" stroke="black" stroke-width="1.5" stroke-linecap="round" stroke-linejoin="round"/>
<path d="M5.71338 9.43113V7.57403C5.71338 4.50138 6.76127 2.00391 11.9798 2.00391C16.6801 2.00391 18.2462 3.861 18.2462 6.64606" stroke="black" stroke-width="1.5" stroke-linecap="round" stroke-linejoin="round"/>
</svg>
