<svg width="40" height="40" viewBox="0 0 40 40" fill="none" xmlns="http://www.w3.org/2000/svg">
<path d="M22.6032 21.7464C22.9542 21.2298 23.1404 20.619 23.1372 19.9944C23.1372 19.3742 22.9532 18.7678 22.6087 18.2521C22.2641 17.7364 21.7743 17.3345 21.2013 17.0971C20.6282 16.8598 19.9977 16.7977 19.3894 16.9187C18.781 17.0397 18.2223 17.3383 17.7837 17.7769C17.3451 18.2155 17.0464 18.7743 16.9254 19.3826C16.8044 19.9909 16.8665 20.6215 17.1039 21.1945C17.3412 21.7675 17.7432 22.2573 18.2589 22.6019C18.7746 22.9465 19.3809 23.1304 20.0012 23.1304" stroke="#0C3BB6" stroke-width="1.5" stroke-linecap="round" stroke-linejoin="round"/>
<path d="M15.1301 14.372C16.5436 13.335 18.247 12.768 20.0001 12.751C23.0921 12.751 25.9741 14.573 27.9801 17.727C28.3678 18.4218 28.5713 19.2043 28.5713 20C28.5713 20.7957 28.3678 21.5781 27.9801 22.273C25.9741 25.427 23.0921 27.249 20.0001 27.249C16.9081 27.249 14.0261 25.427 12.0201 22.273C11.6324 21.5781 11.4289 20.7957 11.4289 20C11.4289 19.2043 11.6324 18.4218 12.0201 17.727" stroke="#0C3BB6" stroke-width="1.5" stroke-linecap="round" stroke-linejoin="round"/>
</svg>
