<?xml version="1.0" encoding="iso-8859-1"?>
<!-- Uploaded to: SVG Repo, www.svgrepo.com, Generator: SVG Repo Mixer Tools -->
<svg fill="#000000" height="800px" width="800px" version="1.1" id="Layer_1" xmlns="http://www.w3.org/2000/svg" xmlns:xlink="http://www.w3.org/1999/xlink" 
	 viewBox="0 0 512 512" xml:space="preserve">
<g transform="translate(1 1)">
	<g>
		<g>
			<path d="M459.8,246.467h-17.067c0-5.12-3.413-8.533-8.533-8.533h-8.533V50.2c0-23.893-18.773-42.667-42.667-42.667h-68.267
				c0-5.12-3.413-8.533-8.533-8.533H203.8c-5.12,0-8.533,3.413-8.533,8.533H127c-23.893,0-42.667,18.773-42.667,42.667v162.133H50.2
				c-23.893,0-42.667,18.773-42.667,42.667v213.333C7.533,492.227,26.307,511,50.2,511h187.733c14.095,0,26.405-6.537,34.133-16.8
				c7.729,10.264,20.038,16.8,34.133,16.8h153.6c23.893,0,42.667-18.773,42.667-42.667v-179.2
				C502.467,265.24,483.693,246.467,459.8,246.467z M340.333,255h76.8h8.533v92.16l-37.547-30.72
				c-0.853-0.853-3.413-1.707-5.12-1.707s-4.267,0.853-5.12,2.56l-37.547,30.72V255z M297.667,16.067
				c0,1.51,0.304,2.865,0.853,4.035v88.979l-37.547-30.72c-3.413-2.56-7.68-2.56-11.093,0l-37.547,30.72V16.067H297.667z
				 M101.4,50.2c0-14.507,11.093-25.6,25.6-25.6h68.267v86.187c0,5.973,3.413,11.947,9.387,14.507
				c5.973,2.56,11.947,1.707,17.067-2.56L255,95.427l33.28,28.16c2.56,1.707,6.827,3.413,10.24,3.413
				c2.56,0,4.267-0.853,6.827-1.707c5.973-2.56,9.387-8.533,9.387-14.507V24.6H383c14.507,0,25.6,11.093,25.6,25.6v187.733h-76.8
				c-5.12,0-8.533,3.413-8.533,8.533H306.2c-0.615,0-1.229,0.016-1.843,0.045c-8.955,0.365-17.124,3.372-23.761,8.289
				c-0.105-23.798-18.835-42.467-42.662-42.467H203.8c0-5.12-3.413-8.533-8.533-8.533H101.4V50.2z M101.4,220.867h85.333
				c0,1.51,0.304,2.865,0.853,4.035v88.979l-37.547-30.72c-3.413-2.56-7.68-2.56-11.093,0L101.4,313.88V220.867z M237.933,493.933
				H50.2c-14.507,0-25.6-11.093-25.6-25.6V255c0-14.507,11.093-25.6,25.6-25.6h34.133v86.187c0,5.973,3.413,11.947,9.387,14.507
				c2.56,0.853,4.267,1.707,6.827,1.707c3.413,0,7.68-1.707,10.24-4.267l33.28-27.307l33.28,27.307
				c5.12,4.267,11.093,5.12,17.067,2.56s9.387-8.533,9.387-14.507V229.4h34.133c14.507,0,25.6,11.093,25.6,25.6v34.133v179.2
				C263.533,482.84,252.44,493.933,237.933,493.933z M485.4,468.333c0,14.507-11.093,25.6-25.6,25.6H306.2
				c-14.507,0-25.6-11.093-25.6-25.6v-179.2c0-14.507,11.093-25.6,25.6-25.6h17.067v86.187c0,5.973,3.413,11.947,9.387,14.507
				s11.947,1.707,17.067-2.56L383,334.36l33.28,28.16c2.56,1.707,6.827,3.413,10.24,3.413c2.56,0,4.267-0.853,6.827-1.707
				c5.973-2.56,9.387-8.533,9.387-14.507v-86.187H459.8c14.507,0,25.6,11.093,25.6,25.6V468.333z"/>
			<path d="M237.933,459.8h-25.6c-5.12,0-8.533,3.413-8.533,8.533s3.413,8.533,8.533,8.533h25.6c5.12,0,8.533-3.413,8.533-8.533
				S243.053,459.8,237.933,459.8z"/>
			<path d="M237.933,425.667h-42.667c-5.12,0-8.533,3.413-8.533,8.533s3.413,8.533,8.533,8.533h42.667
				c5.12,0,8.533-3.413,8.533-8.533S243.053,425.667,237.933,425.667z"/>
			<path d="M459.8,459.8h-25.6c-5.12,0-8.533,3.413-8.533,8.533s3.413,8.533,8.533,8.533h25.6c5.12,0,8.533-3.413,8.533-8.533
				S464.92,459.8,459.8,459.8z"/>
			<path d="M459.8,425.667h-42.667c-5.12,0-8.533,3.413-8.533,8.533s3.413,8.533,8.533,8.533H459.8c5.12,0,8.533-3.413,8.533-8.533
				S464.92,425.667,459.8,425.667z"/>
		</g>
	</g>
</g>
</svg>