<?xml version="1.0" encoding="iso-8859-1"?>
<!-- Uploaded to: SVG Repo, www.svgrepo.com, Generator: SVG Repo Mixer Tools -->
<svg fill="#000000" height="800px" width="800px" version="1.1" id="Layer_1" xmlns="http://www.w3.org/2000/svg" xmlns:xlink="http://www.w3.org/1999/xlink" 
	 viewBox="0 0 512.002 512.002" xml:space="preserve">
<g>
	<g>
		<path d="M362.939,97.04c-3.017-3.535-8.331-3.952-11.865-0.935c-3.535,3.018-3.952,8.331-0.935,11.865
			c19.091,22.354,29.604,50.877,29.604,80.317c0,68.233-55.511,123.743-123.743,123.743s-123.743-55.511-123.743-123.743
			S187.768,64.544,256,64.544c27.566,0,53.65,8.866,75.43,25.64c3.683,2.834,8.966,2.149,11.804-1.533
			c2.836-3.683,2.15-8.967-1.533-11.804c-24.751-19.061-54.385-29.136-85.7-29.136c-77.513,0-140.574,63.062-140.574,140.574
			c0,77.514,63.062,140.574,140.574,140.574c77.514,0,140.574-63.062,140.574-140.574C396.576,154.843,384.63,122.438,362.939,97.04
			z"/>
	</g>
</g>
<g>
	<g>
		<path d="M424.083,188.286c0-6.442,2.82-13.902,5.806-21.8c4.508-11.926,9.169-24.258,5.228-36.394
			c-4.106-12.643-15.903-20.329-26.311-27.11c-6.836-4.454-13.294-8.661-16.812-13.495c-3.593-4.937-5.636-12.457-7.8-20.416
			c-3.235-11.905-6.902-25.398-17.505-33.114c-10.495-7.639-23.793-7.013-36.653-6.405c-8.305,0.392-16.151,0.761-22.081-1.164
			c-5.519-1.792-11.419-6.562-17.667-11.612C280.561,8.913,269.534,0,256.001,0c-13.533,0-24.56,8.913-34.287,16.777
			c-6.247,5.049-12.148,9.819-17.667,11.612c-5.93,1.926-13.774,1.555-22.082,1.164c-12.857-0.606-26.157-1.233-36.652,6.405
			c-10.603,7.716-14.269,21.209-17.505,33.114c-2.163,7.96-4.207,15.478-7.8,20.416c-3.518,4.834-9.974,9.041-16.81,13.495
			c-10.409,6.781-22.207,14.467-26.311,27.11c-3.941,12.136,0.72,24.468,5.228,36.394c2.985,7.899,5.805,15.36,5.805,21.802
			s-2.82,13.903-5.806,21.802c-4.508,11.926-9.169,24.258-5.228,36.394c4.106,12.643,15.903,20.329,26.311,27.11
			c6.836,4.454,13.294,8.661,16.812,13.495c3.593,4.937,5.636,12.457,7.8,20.416c3.235,11.905,6.902,25.398,17.505,33.114
			c10.496,7.638,23.792,7.011,36.652,6.405c8.306-0.392,16.151-0.762,22.081,1.164c5.519,1.792,11.42,6.562,17.668,11.612
			c4.701,3.799,9.71,7.836,15.153,11.002l-32.265,115.743l-29.778-33.184c-2.185-2.435-5.586-3.382-8.717-2.43l-42.635,12.992
			l26.731-95.86c1.248-4.477-1.369-9.118-5.846-10.367c-4.479-1.249-9.119,1.369-10.367,5.846l-30.854,110.645
			c-0.825,2.96,0.028,6.135,2.227,8.282c2.199,2.148,5.394,2.924,8.333,2.029l52.184-15.9l36.443,40.613
			c1.616,1.801,3.904,2.796,6.264,2.795c0.637,0,1.28-0.072,1.917-0.221c2.993-0.7,5.365-2.975,6.191-5.935l36.088-129.46
			c1.059,0.111,2.128,0.187,3.219,0.187c1.09,0,2.156-0.076,3.214-0.187l36.103,129.46c0.825,2.96,3.199,5.235,6.191,5.935
			c0.636,0.148,1.278,0.221,1.915,0.221c2.361,0,4.649-0.995,6.265-2.796l36.431-40.612l52.195,15.9
			c2.938,0.897,6.134,0.118,8.332-2.029c2.198-2.147,3.052-5.322,2.227-8.281l-25.423-91.175c-1.249-4.477-5.891-7.095-10.367-5.846
			c-4.477,1.249-7.095,5.89-5.846,10.367l21.3,76.392l-42.647-12.992c-3.131-0.955-6.532-0.005-8.718,2.43l-29.766,33.182
			l-32.277-115.739c5.446-3.167,10.456-7.204,15.159-11.006c6.247-5.05,12.148-9.819,17.667-11.611
			c5.932-1.924,13.774-1.554,22.082-1.164c8.648,0.407,17.49,0.814,25.548-1.28l4.453,15.97c1.038,3.721,4.419,6.158,8.103,6.158
			c0.748,0,1.509-0.101,2.264-0.311c4.477-1.249,7.095-5.89,5.846-10.367l-5.593-20.058c7.617-7.905,10.742-19.355,13.534-29.631
			c2.163-7.96,4.207-15.479,7.8-20.416c3.518-4.834,9.976-9.041,16.812-13.495c10.409-6.781,22.206-14.467,26.31-27.11
			c3.941-12.136-0.72-24.468-5.228-36.394C426.903,202.19,424.083,194.729,424.083,188.286z M414.143,216.039
			c3.641,9.632,7.079,18.729,4.964,25.245c-2.268,6.985-10.633,12.435-19.49,18.205c-7.812,5.09-15.891,10.353-21.233,17.694
			c-5.415,7.441-7.967,16.828-10.433,25.906c-2.751,10.124-5.35,19.685-11.166,23.919c-5.71,4.156-15.546,3.692-25.955,3.201
			c-9.451-0.448-19.22-0.907-28.073,1.968c-8.48,2.754-15.887,8.74-23.049,14.529c-8.294,6.704-16.127,13.035-23.707,13.035
			c-7.58,0-15.414-6.332-23.707-13.035c-7.162-5.79-14.57-11.777-23.051-14.53c-5.584-1.813-11.532-2.299-17.535-2.299
			c-3.514,0-7.047,0.166-10.537,0.331c-10.411,0.491-20.245,0.954-25.955-3.201c-5.816-4.233-8.415-13.795-11.166-23.919
			c-2.466-9.078-5.018-18.466-10.433-25.906c-5.341-7.34-13.419-12.602-21.233-17.694c-8.857-5.77-17.222-11.221-19.49-18.206
			c-2.115-6.514,1.324-15.612,4.964-25.243c3.389-8.966,6.893-18.236,6.893-27.752c0-9.517-3.504-18.787-6.893-27.752
			c-3.64-9.631-7.079-18.729-4.963-25.245c2.268-6.985,10.634-12.435,19.49-18.205c7.812-5.09,15.89-10.353,21.232-17.692
			c5.415-7.441,7.967-16.828,10.433-25.906c2.751-10.124,5.35-19.685,11.166-23.919c5.711-4.156,15.545-3.692,25.955-3.201
			c9.452,0.448,19.221,0.907,28.073-1.968c8.48-2.754,15.886-8.74,23.049-14.53c8.294-6.702,16.126-13.034,23.707-13.034
			c7.581,0,15.415,6.332,23.708,13.036c7.162,5.79,14.57,11.777,23.051,14.53c8.851,2.875,18.623,2.411,28.072,1.968
			c10.41-0.491,20.243-0.955,25.955,3.201c5.816,4.233,8.415,13.795,11.166,23.919c2.468,9.078,5.018,18.466,10.433,25.906
			c5.341,7.341,13.419,12.603,21.233,17.694c8.857,5.77,17.222,11.22,19.49,18.205c2.115,6.515-1.324,15.613-4.964,25.245
			c-3.389,8.965-6.893,18.234-6.893,27.751S410.755,207.073,414.143,216.039z"/>
	</g>
</g>
<g>
	<g>
		<path d="M204.955,148.805c1.166-2.543,1.834-5.358,1.834-8.334c0-11.076-9.011-20.086-20.086-20.086H169.03
			c-4.648,0-8.416,3.768-8.416,8.416v51.92c0,4.648,3.768,8.416,8.416,8.416h21.639c12.521,0,22.706-10.185,22.706-22.706
			C213.375,159.322,210.085,152.972,204.955,148.805z M177.447,137.217h9.256c1.794,0,3.254,1.46,3.254,3.254
			c0,1.794-1.46,3.254-3.254,3.254h-9.256V137.217z M190.67,172.306h-13.223v-11.749h9.256h3.968c3.24,0,5.874,2.635,5.874,5.874
			C196.546,169.671,193.909,172.306,190.67,172.306z"/>
	</g>
</g>
<g>
	<g>
		<path d="M246.747,172.306h-10.128v-9.128h3.254c4.648,0,8.416-3.768,8.416-8.416c0-4.648-3.768-8.416-8.416-8.416h-3.254v-9.128
			h10.128c4.648,0,8.416-3.768,8.416-8.416s-3.768-8.416-8.416-8.416h-18.544c-4.648,0-8.416,3.768-8.416,8.416v51.92
			c0,4.648,3.768,8.416,8.416,8.416h18.544c4.648,0,8.416-3.768,8.416-8.416C255.163,176.074,251.395,172.306,246.747,172.306z"/>
	</g>
</g>
<g>
	<g>
		<path d="M285.709,146.344h-3.805c-2.517,0-4.564-2.048-4.564-4.564c0-2.516,2.048-4.564,4.564-4.564h8.41
			c0.419,4.256,4.008,7.582,8.375,7.582c4.648,0,8.416-3.768,8.416-8.416c0-8.821-7.177-15.998-15.998-15.998h-9.202
			c-11.798,0-21.395,9.599-21.395,21.395c0,11.797,9.599,21.395,21.395,21.395h3.805c2.517,0,4.564,2.048,4.564,4.565
			s-2.048,4.564-4.564,4.564h-8.41c-0.419-4.256-4.008-7.582-8.375-7.582c-4.648,0-8.416,3.768-8.416,8.416
			c0,8.821,7.177,15.998,15.998,15.998h9.203c11.797,0.001,21.395-9.597,21.395-21.395
			C307.105,155.943,297.506,146.344,285.709,146.344z"/>
	</g>
</g>
<g>
	<g>
		<path d="M349.168,120.385H320.16c-4.648,0-8.416,3.768-8.416,8.416c0,4.648,3.768,8.416,8.416,8.416h6.088v43.505
			c0,4.648,3.768,8.416,8.416,8.416c4.648,0,8.416-3.768,8.416-8.416v-43.505h6.088c4.649,0,8.417-3.768,8.417-8.416
			S353.816,120.385,349.168,120.385z"/>
	</g>
</g>
<g>
	<g>
		<path d="M216.112,200.551c-3.357-1.193-7.101-0.141-9.347,2.621l-13.863,17.054l-13.863-17.054
			c-2.246-2.764-5.99-3.814-9.347-2.621c-3.356,1.193-5.599,4.368-5.599,7.93v40.235c0,4.648,3.768,8.416,8.416,8.416
			c4.648,0,8.416-3.768,8.416-8.416v-16.54l5.447,6.701c1.598,1.966,3.997,3.107,6.531,3.107s4.933-1.141,6.531-3.107l5.447-6.701
			v16.54c0,4.649,3.768,8.416,8.416,8.416s8.416-3.768,8.416-8.416v-40.235C221.711,204.919,219.468,201.742,216.112,200.551z"/>
	</g>
</g>
<g>
	<g>
		<path d="M343.092,200.551c-3.357-1.193-7.1-0.141-9.347,2.621l-13.863,17.054l-13.863-17.054c-2.246-2.764-5.99-3.814-9.347-2.621
			c-3.356,1.193-5.599,4.368-5.599,7.93v40.235c0,4.648,3.768,8.416,8.416,8.416s8.416-3.768,8.416-8.416v-16.54l5.447,6.701
			c1.598,1.966,3.997,3.107,6.531,3.107c2.534,0,4.933-1.141,6.531-3.107l5.447-6.701v16.54c0,4.649,3.768,8.416,8.416,8.416
			c4.648,0,8.416-3.768,8.416-8.416v-40.235C348.691,204.919,346.448,201.742,343.092,200.551z"/>
	</g>
</g>
<g>
	<g>
		<path d="M256.001,200.065c-10.078,0-26.984,3.435-26.984,26.44c0,18.032,11.097,30.626,26.984,30.626
			c15.888,0,26.984-12.594,26.984-30.626C282.985,203.499,266.079,200.065,256.001,200.065z M256.001,240.299
			c-9.163,0-10.152-9.647-10.152-13.794c0-7.722,1.992-9.609,10.152-9.609c8.159,0,10.152,1.886,10.152,9.609
			C266.153,230.652,265.164,240.299,256.001,240.299z"/>
	</g>
</g>
</svg>