<svg width="24" height="24" viewBox="0 0 24 24" fill="none" xmlns="http://www.w3.org/2000/svg">
<mask id="mask0_3290_9311" style="mask-type:alpha" maskUnits="userSpaceOnUse" x="0" y="0" width="24" height="24">
<rect width="24" height="24" fill="#D9D9D9"/>
</mask>
<g mask="url(#mask0_3290_9311)">
<path d="M20.4812 19C20.6935 19.0001 20.8718 19.0721 21.0154 19.2158C21.1592 19.3596 21.2312 19.5385 21.2312 19.751C21.2311 19.9634 21.1591 20.1418 21.0154 20.2852C20.8718 20.4287 20.6935 20.4999 20.4812 20.5H17.7C17.6112 20.4879 17.4229 20.4425 17.2898 20.2637C17.1298 20.058 17.1199 19.8154 17.1199 19.7549C17.1199 19.7057 17.1307 19.3922 17.3503 19.1748C17.5103 19.0176 17.6799 19.0049 17.74 19.0049H13.9998C13.9998 19.0049 14.3198 19.0054 14.4998 19.2715C14.5197 19.3078 14.5403 19.344 14.5603 19.3682C14.6401 19.5372 14.6297 19.7062 14.6296 19.7549C14.6296 19.8395 14.6301 19.9726 14.5603 20.1055C14.4223 20.408 14.1276 20.4844 14.03 20.5H3.51929C3.30679 20.5 3.12877 20.428 2.98511 20.2842C2.84137 20.1404 2.76929 19.9624 2.76929 19.75C2.76929 19.5373 2.84128 19.3593 2.98511 19.2158C3.12877 19.0722 3.30679 19 3.51929 19H20.4812ZM6.50073 9.5C6.7132 9.5001 6.89135 9.57225 7.03491 9.71582C7.17829 9.85958 7.24969 10.0377 7.24976 10.25V16.25C7.24976 16.4625 7.17777 16.6413 7.03394 16.7852C6.89017 16.9286 6.71208 17 6.49976 17C6.28721 17 6.10903 16.9287 5.96558 16.7852C5.82191 16.6413 5.74976 16.4625 5.74976 16.25V10.25C5.74982 10.0377 5.82189 9.85957 5.96558 9.71582C6.10941 9.57215 6.28823 9.5 6.50073 9.5ZM12.0007 9.5C12.2132 9.5001 12.3915 9.57225 12.5349 9.71582C12.6784 9.85955 12.7497 10.0377 12.7498 10.25V16.25C12.7498 16.4625 12.6778 16.6413 12.5339 16.7852C12.3902 16.9286 12.2121 17 11.9998 17C11.7872 17 11.609 16.9287 11.4656 16.7852C11.3219 16.6413 11.2498 16.4625 11.2498 16.25V10.25C11.2498 10.0377 11.3219 9.85957 11.4656 9.71582C11.6094 9.57215 11.7882 9.5 12.0007 9.5ZM17.5007 9.5C17.7132 9.5001 17.8915 9.57225 18.0349 9.71582C18.1784 9.85955 18.2497 10.0377 18.2498 10.25V16.25C18.2498 16.4625 18.1778 16.6413 18.0339 16.7852C17.8902 16.9286 17.7121 17 17.4998 17C17.2873 17 17.1092 16.9286 16.9656 16.7852C16.8221 16.6413 16.7498 16.4625 16.7498 16.25V10.25C16.7498 10.0377 16.8219 9.85957 16.9656 9.71582C17.1094 9.57215 17.2882 9.5 17.5007 9.5ZM11.9988 1.76953C12.2778 1.76953 12.5433 1.8297 12.7947 1.9502L20.8347 5.87891C20.9603 5.94307 21.0576 6.03313 21.1267 6.14844C21.196 6.26391 21.2312 6.38804 21.2312 6.52051V6.79102C21.2312 6.99551 21.1638 7.16488 21.03 7.29883C20.896 7.43283 20.7256 7.5 20.5193 7.5H3.40991C3.23191 7.5 3.08031 7.43781 2.95581 7.31348C2.83156 7.18943 2.76936 7.03874 2.76929 6.86133V6.4707C2.76929 6.34056 2.8018 6.22811 2.86694 6.13379C2.93221 6.03972 3.01824 5.96327 3.12476 5.9043L11.2058 1.9502C11.4555 1.82971 11.7198 1.76953 11.9988 1.76953ZM11.9998 3.2793C11.955 3.27934 11.9099 3.28832 11.865 3.30762L6.31519 6H17.6843L12.1345 3.30762C12.0896 3.28839 12.0445 3.2793 11.9998 3.2793Z" fill="black"/>
</g>
</svg>
