<?xml version="1.0" encoding="iso-8859-1"?>
<!-- Uploaded to: SVG Repo, www.svgrepo.com, Generator: SVG Repo Mixer Tools -->
<svg fill="#000000" height="800px" width="800px" version="1.1" id="Layer_1" xmlns="http://www.w3.org/2000/svg" xmlns:xlink="http://www.w3.org/1999/xlink" 
	 viewBox="0 0 512 512" xml:space="preserve">
<g>
	<g>
		<path d="M175.878,95.812l-40.737-20.369c-5.173-2.587-11.2-2.316-16.12,0.725c-4.919,3.041-7.856,8.31-7.856,14.093v40.737
			c0,5.785,2.937,11.053,7.857,14.094c2.678,1.655,5.682,2.49,8.7,2.49c2.527,0,5.062-0.586,7.419-1.765l40.737-20.369
			c5.649-2.825,9.158-8.503,9.158-14.818C185.036,104.315,181.527,98.636,175.878,95.812z M168.709,111.108l-40.737,20.369
			c-0.101,0.049-0.266,0.134-0.521-0.023c-0.253-0.157-0.253-0.343-0.253-0.454V90.262c0-0.111,0-0.298,0.253-0.454
			c0.11-0.067,0.203-0.091,0.282-0.091c0.104,0,0.181,0.04,0.238,0.067l40.737,20.369c0.131,0.066,0.295,0.147,0.295,0.478
			C169.004,110.961,168.84,111.042,168.709,111.108z"/>
	</g>
</g>
<g>
	<g>
		<path d="M196.142,34.205H93.528c-23.281,0-42.221,18.941-42.221,42.221v68.409c0,23.281,18.941,42.221,42.221,42.221h102.614
			c23.281,0,42.221-18.941,42.221-42.221V76.426C238.363,53.145,219.422,34.205,196.142,34.205z M222.33,144.835
			c0,14.44-11.748,26.188-26.188,26.188H93.528c-14.44,0-26.188-11.748-26.188-26.188V76.426c0-14.44,11.748-26.188,26.188-26.188
			h102.614c14.44,0,26.188,11.748,26.188,26.188V144.835z"/>
	</g>
</g>
<g>
	<g>
		<path d="M494.898,363.524v-13.462c0-70.433-57.3-127.733-127.733-127.733s-127.733,57.3-127.733,127.733v13.462
			c-10.2,5.792-17.102,16.748-17.102,29.294v34.205c0,12.546,6.902,23.502,17.102,29.294v22.013c0,9.725-7.912,17.637-17.637,17.637
			s-17.637-7.912-17.637-17.637V290.205c0-18.566-15.105-33.67-33.67-33.67s-33.67,15.105-33.67,33.67v51.307
			c0,9.725-7.912,17.637-17.637,17.637s-17.637-7.912-17.637-17.637v-120.25h163.006c13.851,0,25.119-11.268,25.119-25.119V25.119
			C289.67,11.268,278.402,0,264.551,0H25.119C11.268,0,0,11.268,0,25.119v171.023c0,13.851,11.268,25.119,25.119,25.119h60.392
			v120.25c0,18.566,15.105,33.67,33.67,33.67s33.67-15.105,33.67-33.67v-51.307c0-9.725,7.912-17.637,17.637-17.637
			s17.637,7.912,17.637,17.637V478.33c0,18.566,15.105,33.67,33.67,33.67s33.67-15.105,33.67-33.67v-17.651
			c0.178,0.003,0.355,0.014,0.534,0.014h17.102c9.136,0,16.568-7.432,16.568-16.568v-68.409c0-9.136-7.432-16.568-16.568-16.568H256
			c-0.18,0-0.356,0.011-0.534,0.014v-9.099c0-61.592,50.108-111.699,111.699-111.699s111.699,50.108,111.699,111.699v9.099
			c-0.179-0.003-0.355-0.014-0.534-0.014h-17.102c-9.136,0-16.568,7.432-16.568,16.568v68.409c0,9.136,7.432,16.568,16.568,16.568
			h17.102c18.566,0,33.67-15.105,33.67-33.67v-34.205C512,380.273,505.098,369.317,494.898,363.524z M25.119,205.228
			c-5.01,0-9.086-4.076-9.086-9.086V25.119c0-5.01,4.076-9.086,9.086-9.086h239.432c5.01,0,9.086,4.076,9.086,9.086v171.023
			c0,5.01-4.076,9.086-9.086,9.086H25.119z M256,375.182h17.102c0.295,0,0.534,0.239,0.534,0.534v68.409
			c0,0.295-0.239,0.534-0.534,0.534H256c-9.725,0-17.637-7.912-17.637-17.637v-34.205C238.363,383.094,246.275,375.182,256,375.182z
			 M495.967,427.023c0,9.725-7.912,17.637-17.637,17.637h-17.102c-0.295,0-0.534-0.239-0.534-0.534v-68.409
			c0-0.295,0.239-0.534,0.534-0.534h17.102c9.725,0,17.637,7.912,17.637,17.637V427.023z"/>
	</g>
</g>
</svg>