<?xml version="1.0" encoding="iso-8859-1"?>
<!-- Uploaded to: SVG Repo, www.svgrepo.com, Generator: SVG Repo Mixer Tools -->
<!DOCTYPE svg PUBLIC "-//W3C//DTD SVG 1.1//EN" "http://www.w3.org/Graphics/SVG/1.1/DTD/svg11.dtd">
<svg fill="#000000" height="800px" width="800px" version="1.1" id="Capa_1" xmlns="http://www.w3.org/2000/svg" xmlns:xlink="http://www.w3.org/1999/xlink" 
	 viewBox="0 0 297.527 297.527" xml:space="preserve">
<path d="M148.575,0C113.68,0,94.062,13.113,83.894,25.281C73.411,37.826,70.435,48.966,70.027,50.91
	c-1.665,7-31.652,133.691-32.413,175.751c-5.616,13.287-8.829,26.931-8.829,36.83c0,3.034,1.753,6.555,4.5,7.844
	c42.582,19.989,82.733,26.193,116.144,26.192c17.588,0,33.311-1.896,46.529-4.22c41.635-7.319,67.704-21.974,68.795-22.586
	c2.465-1.385,3.989-4.361,3.989-7.189c0-9.941-3.24-23.614-8.899-36.954c-1.065-42.716-30.746-167.7-32.4-174.653
	c-0.407-1.944-3.383-14.112-13.866-26.658C203.408,13.099,183.47,0,148.575,0z M242.146,197.217
	c-8.411-9.563-18.373-16.217-29.22-16.217h-23.163v-17.798c6-6.827,10.445-14.562,14.307-22.32c1.345-0.24,2.683-0.682,4.021-1.32
	c6.146-2.936,11.715-10.093,14.908-19.142c1.225-3.47,1.985-6.877,2.346-9.96C231.674,138.798,238.629,172.262,242.146,197.217z
	 M88.38,103.829c9.162-1.597,41.205-8.646,60.195-32.447c8.308,11.082,25.26,26.118,61.132,33.187
	c0.297,2.117,0.218,5.857-1.471,10.643c-2.104,5.963-5.143,9.113-6.529,10.022c-1.617-0.531-3.372-0.525-5.003,0.04
	c-2.048,0.709-3.706,2.235-4.586,4.216c-8.424,18.957-24.783,41.093-43.179,41.093c-18.437,0-34.801-22.202-43.224-41.216
	c-0.912-2.058-2.639-3.623-4.786-4.297c-1.678-0.525-3.414-0.467-5.036,0.14c-1.404-0.939-4.303-4.086-6.388-9.996
	C87.599,109.805,87.946,105.729,88.38,103.829z M114.856,196c4.322,0,8.907-0.957,8.907-5.279V177.83
	c8,5.203,16.09,8.401,25.163,8.401c9.341,0,17.837-3.401,25.837-8.883v13.372c0,4.322,4.628,5.279,8.95,5.279h1.198l-36.148,52.286
	L113.614,196H114.856z M148.575,14c54.114,0,63.208,39.132,63.539,40.781c0.022,0.119,0.048-0.508,0.076-0.39
	c0.113,0.477,4.188,16.917,9.402,39.567c-1.355-1.59-3.061-2.776-5.073-3.62c-0.734-0.418-1.544-0.709-2.421-0.874
	c-49.233-9.259-57.418-34.347-57.995-36.074c-0.423-1.266-2.153-4.89-7.528-4.89c-5,0-6.094,3.014-7.042,4.89
	C126.311,83.515,84.3,88.643,83.876,88.698c-1.082,0.139-2.083,0.494-2.967,1.015c-1.811,0.799-3.364,1.949-4.64,3.41
	c5.021-21.938,8.899-37.644,9.01-38.109c0.021-0.091,0.05-0.1,0.068-0.19C85.687,53.132,94.459,14,148.575,14z M72.258,110.933
	c0.375,3.009,1.112,6.189,2.275,9.487c2.132,6.042,5.41,11.4,9.231,15.092c3.152,3.046,6.599,4.887,10.045,5.418
	c4.012,8.054,8.955,16.069,14.955,23.074V181H84.601c-10.725,0-20.582,6.512-28.933,15.898
	C59.21,171.973,66.044,138.98,72.258,110.933z M193.248,277.547c-35.17,6.184-89.117,7.06-148.528-19.44
	C47.302,234.545,66.99,196,84.601,196H94.79l47.479,70.876c1.454,2.162,3.889,3.558,6.494,3.558s5.04-1.445,6.494-3.607L203.943,196
	h8.983c17.667,0,37.426,38.517,39.905,62.066C244.202,262.209,222.899,272.334,193.248,277.547z"/>
</svg>